<svg width="27" height="20" viewBox="0 0 27 20" fill="none" xmlns="http://www.w3.org/2000/svg">
<path fill-rule="evenodd" clip-rule="evenodd" d="M11.1696 16C5.19306 16 0.348145 12.4183 0.348145 8C0.348145 3.58172 5.19306 0 11.1696 0C17.1461 0 21.991 3.58172 21.991 8C21.991 9.84868 21.1428 11.5509 19.7184 12.9056L27.0057 18.2929L25.0927 19.7071L17.8054 14.3198C15.973 15.3729 13.6703 16 11.1696 16ZM19.2857 8C19.2857 11.3137 15.652 14 11.1696 14C6.68726 14 3.05357 11.3137 3.05357 8C3.05357 4.68629 6.68726 2 11.1696 2C15.652 2 19.2857 4.68629 19.2857 8Z" fill="#D5DDE0"/>
</svg>
